<svg width="16" height="16" viewBox="0 0 16 16" fill="none" xmlns="http://www.w3.org/2000/svg">
<path fill-rule="evenodd" clip-rule="evenodd" d="M0 8C0 12.4183 3.58172 16 8 16C12.4183 16 16 12.4183 16 8C16 3.58172 12.4183 0 8 0C3.58172 0 0 3.58172 0 8ZM6 5C6 6.10457 6.89543 7 8 7C9.10457 7 10 6.10457 10 5C10 3.89543 9.10457 3 8 3C6.89543 3 6 3.89543 6 5ZM8.00007 9C10.0176 9 11.7561 10.195 12.5463 11.9157C11.446 13.192 9.81735 14 8.00002 14C6.18272 14 4.55413 13.1921 3.45384 11.9158C4.24403 10.195 5.9825 9 8.00007 9Z" fill="#2C2C2C"/>
</svg>
